<svg width="40" height="32" viewBox="0 0 40 32" fill="none" xmlns="http://www.w3.org/2000/svg">
<g id="Group 1000003195">
<rect id="Rectangle 34625359" x="8.25781" y="3.30078" width="24.7727" height="23.1212" fill="white"/>
<path id="Vector" fill-rule="evenodd" clip-rule="evenodd" d="M0 26.8961C0 29.2403 1.89688 31.1429 4.24109 31.1429H35.3953C37.7395 31.1429 39.6364 29.2403 39.6364 26.8961V21.1375C39.6367 20.8265 39.5345 20.524 39.3456 20.2768C39.1568 20.0296 38.8918 19.8515 38.5917 19.7701C37.6703 19.5192 36.8571 18.9722 36.2773 18.2134C35.6976 17.4547 35.3835 16.5263 35.3835 15.5714C35.3835 14.6165 35.6976 13.6882 36.2773 12.9294C36.8571 12.1707 37.6703 11.6237 38.5917 11.3728C38.8918 11.2913 39.1568 11.1132 39.3456 10.866C39.5345 10.6189 39.6367 10.3164 39.6364 10.0054V4.24675C39.6364 1.90255 37.7395 0 35.3953 0H4.24109C1.89688 0 0 1.90255 0 4.24675V9.99403C0.00037642 10.3066 0.104172 10.6102 0.295198 10.8575C0.486224 11.1049 0.75374 11.2821 1.05603 11.3615C1.98713 11.605 2.81124 12.1502 3.39942 12.912C3.9876 13.6738 4.30665 14.609 4.30665 15.5714C4.30665 16.5338 3.9876 17.4691 3.39942 18.2309C2.81124 18.9926 1.98713 19.5379 1.05603 19.7814C0.75374 19.8608 0.486224 20.038 0.295198 20.2853C0.104172 20.5327 0.00037642 20.8363 0 21.1488L0 26.8961ZM14.0483 23.9007L28.2041 9.74488C28.52 9.41016 28.6931 8.9655 28.6866 8.50528C28.6801 8.04505 28.4945 7.60547 28.1692 7.27983C27.8439 6.95418 27.4046 6.7681 26.9443 6.76106C26.4841 6.75402 26.0393 6.92658 25.7042 7.24213L11.5483 21.398C11.376 21.5603 11.2379 21.7555 11.1424 21.9722C11.0469 22.1888 10.9958 22.4224 10.9922 22.6591C10.9885 22.8958 11.0325 23.1309 11.1213 23.3503C11.2102 23.5698 11.3422 23.7692 11.5095 23.9367C11.6768 24.1042 11.8761 24.2364 12.0954 24.3255C12.3148 24.4146 12.5498 24.4588 12.7865 24.4555C13.0232 24.4521 13.2569 24.4013 13.4736 24.306C13.6903 24.2107 13.8858 24.0729 14.0483 23.9007ZM11.3841 9.90909C11.3841 9.15822 11.6824 8.4381 12.2134 7.90715C12.7443 7.37621 13.4644 7.07792 14.2153 7.07792C14.9662 7.07792 15.6863 7.37621 16.2172 7.90715C16.7482 8.4381 17.0465 9.15822 17.0465 9.90909C17.0465 10.66 16.7482 11.3801 16.2172 11.911C15.6863 12.442 14.9662 12.7403 14.2153 12.7403C13.4644 12.7403 12.7443 12.442 12.2134 11.911C11.6824 11.3801 11.3841 10.66 11.3841 9.90909ZM22.7088 21.2338C22.7088 20.4829 23.0071 19.7628 23.538 19.2318C24.069 18.7009 24.7891 18.4026 25.54 18.4026C26.2908 18.4026 27.011 18.7009 27.5419 19.2318C28.0729 19.7628 28.3711 20.4829 28.3711 21.2338C28.3711 21.9846 28.0729 22.7048 27.5419 23.2357C27.011 23.7667 26.2908 24.0649 25.54 24.0649C24.7891 24.0649 24.069 23.7667 23.538 23.2357C23.0071 22.7048 22.7088 21.9846 22.7088 21.2338Z" fill="#0351FF"/>
</g>
</svg>
