<svg width="20" height="20" viewBox="0 0 20 20" fill="none" xmlns="http://www.w3.org/2000/svg">
<g clip-path="url(#clip0_3112_30998)">
<path d="M10.4305 11.3929L10.4372 11.3616C10.5667 10.8281 10.7296 10.1629 10.6024 9.56027C10.5176 9.08482 10.1671 8.89955 9.86803 8.88616C9.51535 8.87054 9.20061 9.07143 9.12249 9.36384C8.97517 9.89955 9.10686 10.6317 9.34794 11.5647C9.04436 12.2879 8.55999 13.3393 8.20508 13.9643C7.54436 14.3058 6.6582 14.8326 6.52651 15.4978C6.49972 15.6205 6.53097 15.7768 6.60463 15.9174C6.68722 16.0737 6.81892 16.1942 6.97294 16.2522C7.0399 16.2768 7.12026 16.2969 7.21401 16.2969C7.60686 16.2969 8.24302 15.9799 9.09124 14.5246C9.2207 14.4821 9.35463 14.4375 9.4841 14.3929C10.0912 14.1875 10.7207 13.9732 11.2899 13.8772C11.9194 14.2143 12.6359 14.4308 13.1225 14.4308C13.6046 14.4308 13.7944 14.1451 13.8658 13.9732C13.9908 13.6719 13.9305 13.2924 13.7274 13.0893C13.4328 12.7991 12.7162 12.7232 11.6002 12.8616C11.0511 12.5268 10.6917 12.0714 10.4305 11.3929ZM7.98186 14.7835C7.6716 15.2344 7.43722 15.4598 7.30999 15.558C7.45954 15.2835 7.75195 14.9933 7.98186 14.7835ZM9.93722 9.52679C10.0533 9.72545 10.0377 10.3259 9.94838 10.6295C9.83901 10.1853 9.82338 9.5558 9.88811 9.48214C9.90597 9.48438 9.9216 9.49777 9.93722 9.52679ZM9.90151 12.2165C10.1403 12.6295 10.4417 12.9844 10.7743 13.2478C10.2921 13.3571 9.8524 13.5379 9.45954 13.6987C9.36579 13.7366 9.27428 13.7746 9.18499 13.8103C9.48186 13.2723 9.72963 12.6629 9.90151 12.2165ZM13.3747 13.6786C13.377 13.683 13.3792 13.6897 13.3658 13.6987H13.3613L13.3569 13.7054C13.339 13.7165 13.156 13.8237 12.368 13.5134C13.2743 13.471 13.3725 13.6763 13.3747 13.6786ZM17.647 5.01339L12.8435 0.209821C12.7095 0.0758929 12.5287 0 12.339 0H2.85686C2.46177 0 2.14258 0.319196 2.14258 0.714286V19.2857C2.14258 19.6808 2.46177 20 2.85686 20H17.1426C17.5377 20 17.8569 19.6808 17.8569 19.2857V5.52009C17.8569 5.33036 17.781 5.14732 17.647 5.01339ZM16.2095 5.84821H12.0087V1.64732L16.2095 5.84821ZM16.2497 18.3929H3.74972V1.60714H10.4908V6.42857C10.4908 6.67721 10.5896 6.91567 10.7654 7.09148C10.9412 7.2673 11.1797 7.36607 11.4283 7.36607H16.2497V18.3929Z" fill="white"/>
</g>
<defs>
<clipPath id="clip0_3112_30998">
<rect width="20" height="20" fill="white"/>
</clipPath>
</defs>
</svg>
