<svg width="15" height="12" viewBox="0 0 15 12" fill="none" xmlns="http://www.w3.org/2000/svg">
<g id="Group 1000003195">
<rect id="Rectangle 34625359" x="3.125" y="1.35742" width="9.375" height="8.75" fill="#0351FF"/>
<path id="Vector" fill-rule="evenodd" clip-rule="evenodd" d="M0 10.286C0 11.1731 0.717857 11.8931 1.605 11.8931H13.395C14.2821 11.8931 15 11.1731 15 10.286V8.10671C15.0001 7.989 14.9614 7.87452 14.89 7.78098C14.8185 7.68745 14.7182 7.62005 14.6046 7.58921C14.256 7.49426 13.9482 7.28726 13.7288 7.00012C13.5094 6.71298 13.3905 6.36165 13.3905 6.00028C13.3905 5.63891 13.5094 5.28757 13.7288 5.00043C13.9482 4.7133 14.256 4.5063 14.6046 4.41135C14.7182 4.38051 14.8185 4.31311 14.89 4.21957C14.9614 4.12603 15.0001 4.01156 15 3.89385V1.71456C15 0.827422 14.2821 0.107422 13.395 0.107422H1.605C0.717857 0.107422 0 0.827422 0 1.71456V3.88956C0.000142453 4.00784 0.0394228 4.12274 0.111715 4.21636C0.184007 4.30997 0.285246 4.37702 0.399643 4.40706C0.752009 4.49921 1.06389 4.70556 1.28648 4.99384C1.50907 5.28213 1.62981 5.63607 1.62981 6.00028C1.62981 6.36449 1.50907 6.71843 1.28648 7.00671C1.06389 7.29499 0.752009 7.50135 0.399643 7.59349C0.285246 7.62354 0.184007 7.69059 0.111715 7.7842C0.0394228 7.87781 0.000142453 7.99272 0 8.11099L0 10.286ZM5.31643 9.15242L10.6736 3.79528C10.7931 3.66861 10.8586 3.50033 10.8562 3.32616C10.8537 3.15199 10.7835 2.98564 10.6604 2.8624C10.5373 2.73917 10.371 2.66874 10.1968 2.66608C10.0227 2.66342 9.85431 2.72872 9.7275 2.84814L4.37036 8.20528C4.30513 8.2667 4.25289 8.3406 4.21674 8.42258C4.18058 8.50456 4.16125 8.59296 4.15988 8.68255C4.15851 8.77213 4.17513 8.86109 4.20876 8.94413C4.24239 9.02718 4.29234 9.10264 4.35566 9.16603C4.41898 9.22942 4.49438 9.27946 4.57739 9.31318C4.6604 9.34691 4.74933 9.36363 4.83892 9.36236C4.92851 9.36109 5.01694 9.34186 5.09896 9.3058C5.18098 9.26974 5.25493 9.21758 5.31643 9.15242ZM4.30821 3.85742C4.30821 3.57326 4.4211 3.30074 4.62203 3.09981C4.82296 2.89888 5.09548 2.78599 5.37964 2.78599C5.6638 2.78599 5.93633 2.89888 6.13726 3.09981C6.33819 3.30074 6.45107 3.57326 6.45107 3.85742C6.45107 4.14158 6.33819 4.4141 6.13726 4.61504C5.93633 4.81597 5.6638 4.92885 5.37964 4.92885C5.09548 4.92885 4.82296 4.81597 4.62203 4.61504C4.4211 4.4141 4.30821 4.14158 4.30821 3.85742ZM8.59393 8.14314C8.59393 7.85898 8.70681 7.58645 8.90774 7.38552C9.10868 7.18459 9.3812 7.07171 9.66536 7.07171C9.94952 7.07171 10.222 7.18459 10.423 7.38552C10.6239 7.58645 10.7368 7.85898 10.7368 8.14314C10.7368 8.4273 10.6239 8.69982 10.423 8.90075C10.222 9.10168 9.94952 9.21456 9.66536 9.21456C9.3812 9.21456 9.10868 9.10168 8.90774 8.90075C8.70681 8.69982 8.59393 8.4273 8.59393 8.14314Z" fill="white"/>
</g>
</svg>
